<?xml version="1.0" standalone="no"?><svg xmlns="http://www.w3.org/2000/svg" viewBox="0 0 1440 320"><path fill="#3939b0" fill-opacity="1" d="M0,160L7.5,133.3C15,107,30,53,45,74.7C60,96,75,192,90,234.7C105,277,120,267,135,245.3C150,224,165,192,180,181.3C195,171,210,181,225,186.7C240,192,255,192,270,186.7C285,181,300,171,315,149.3C330,128,345,96,360,117.3C375,139,390,213,405,213.3C420,213,435,139,450,128C465,117,480,171,495,176C510,181,525,139,540,149.3C555,160,570,224,585,250.7C600,277,615,267,630,256C645,245,660,235,675,218.7C690,203,705,181,720,197.3C735,213,750,267,765,288C780,309,795,299,810,250.7C825,203,840,117,855,96C870,75,885,117,900,128C915,139,930,117,945,96C960,75,975,53,990,48C1005,43,1020,53,1035,53.3C1050,53,1065,43,1080,64C1095,85,1110,139,1125,170.7C1140,203,1155,213,1170,218.7C1185,224,1200,224,1215,208C1230,192,1245,160,1260,176C1275,192,1290,256,1305,277.3C1320,299,1335,277,1350,272C1365,267,1380,277,1395,245.3C1410,213,1425,139,1433,101.3L1440,64L1440,320L1432.5,320C1425,320,1410,320,1395,320C1380,320,1365,320,1350,320C1335,320,1320,320,1305,320C1290,320,1275,320,1260,320C1245,320,1230,320,1215,320C1200,320,1185,320,1170,320C1155,320,1140,320,1125,320C1110,320,1095,320,1080,320C1065,320,1050,320,1035,320C1020,320,1005,320,990,320C975,320,960,320,945,320C930,320,915,320,900,320C885,320,870,320,855,320C840,320,825,320,810,320C795,320,780,320,765,320C750,320,735,320,720,320C705,320,690,320,675,320C660,320,645,320,630,320C615,320,600,320,585,320C570,320,555,320,540,320C525,320,510,320,495,320C480,320,465,320,450,320C435,320,420,320,405,320C390,320,375,320,360,320C345,320,330,320,315,320C300,320,285,320,270,320C255,320,240,320,225,320C210,320,195,320,180,320C165,320,150,320,135,320C120,320,105,320,90,320C75,320,60,320,45,320C30,320,15,320,8,320L0,320Z"></path></svg>