<?xml version="1.0" standalone="no"?><svg xmlns="http://www.w3.org/2000/svg" viewBox="0 0 1440 320"><path fill="#3939b0" fill-opacity="1" d="M0,32L7.5,42.7C15,53,30,75,45,96C60,117,75,139,90,170.7C105,203,120,245,135,234.7C150,224,165,160,180,144C195,128,210,160,225,160C240,160,255,128,270,122.7C285,117,300,139,315,160C330,181,345,203,360,202.7C375,203,390,181,405,181.3C420,181,435,203,450,181.3C465,160,480,96,495,96C510,96,525,160,540,165.3C555,171,570,117,585,96C600,75,615,85,630,80C645,75,660,53,675,58.7C690,64,705,96,720,106.7C735,117,750,107,765,128C780,149,795,203,810,202.7C825,203,840,149,855,154.7C870,160,885,224,900,240C915,256,930,224,945,213.3C960,203,975,213,990,229.3C1005,245,1020,267,1035,272C1050,277,1065,267,1080,261.3C1095,256,1110,256,1125,224C1140,192,1155,128,1170,128C1185,128,1200,192,1215,208C1230,224,1245,192,1260,160C1275,128,1290,96,1305,90.7C1320,85,1335,107,1350,106.7C1365,107,1380,85,1395,85.3C1410,85,1425,107,1433,117.3L1440,128L1440,320L1432.5,320C1425,320,1410,320,1395,320C1380,320,1365,320,1350,320C1335,320,1320,320,1305,320C1290,320,1275,320,1260,320C1245,320,1230,320,1215,320C1200,320,1185,320,1170,320C1155,320,1140,320,1125,320C1110,320,1095,320,1080,320C1065,320,1050,320,1035,320C1020,320,1005,320,990,320C975,320,960,320,945,320C930,320,915,320,900,320C885,320,870,320,855,320C840,320,825,320,810,320C795,320,780,320,765,320C750,320,735,320,720,320C705,320,690,320,675,320C660,320,645,320,630,320C615,320,600,320,585,320C570,320,555,320,540,320C525,320,510,320,495,320C480,320,465,320,450,320C435,320,420,320,405,320C390,320,375,320,360,320C345,320,330,320,315,320C300,320,285,320,270,320C255,320,240,320,225,320C210,320,195,320,180,320C165,320,150,320,135,320C120,320,105,320,90,320C75,320,60,320,45,320C30,320,15,320,8,320L0,320Z"></path></svg>