<?xml version="1.0" standalone="no"?><svg xmlns="http://www.w3.org/2000/svg" viewBox="0 0 1440 320"><path fill="#da4747" fill-opacity="1" d="M0,160L7.5,181.3C15,203,30,245,45,261.3C60,277,75,267,90,266.7C105,267,120,277,135,245.3C150,213,165,139,180,138.7C195,139,210,213,225,229.3C240,245,255,203,270,170.7C285,139,300,117,315,133.3C330,149,345,203,360,234.7C375,267,390,277,405,256C420,235,435,181,450,149.3C465,117,480,107,495,101.3C510,96,525,96,540,112C555,128,570,160,585,176C600,192,615,192,630,202.7C645,213,660,235,675,213.3C690,192,705,128,720,133.3C735,139,750,213,765,240C780,267,795,245,810,197.3C825,149,840,75,855,58.7C870,43,885,85,900,101.3C915,117,930,107,945,96C960,85,975,75,990,74.7C1005,75,1020,85,1035,96C1050,107,1065,117,1080,122.7C1095,128,1110,128,1125,112C1140,96,1155,64,1170,85.3C1185,107,1200,181,1215,208C1230,235,1245,213,1260,192C1275,171,1290,149,1305,122.7C1320,96,1335,64,1350,80C1365,96,1380,160,1395,170.7C1410,181,1425,139,1433,117.3L1440,96L1440,320L1432.5,320C1425,320,1410,320,1395,320C1380,320,1365,320,1350,320C1335,320,1320,320,1305,320C1290,320,1275,320,1260,320C1245,320,1230,320,1215,320C1200,320,1185,320,1170,320C1155,320,1140,320,1125,320C1110,320,1095,320,1080,320C1065,320,1050,320,1035,320C1020,320,1005,320,990,320C975,320,960,320,945,320C930,320,915,320,900,320C885,320,870,320,855,320C840,320,825,320,810,320C795,320,780,320,765,320C750,320,735,320,720,320C705,320,690,320,675,320C660,320,645,320,630,320C615,320,600,320,585,320C570,320,555,320,540,320C525,320,510,320,495,320C480,320,465,320,450,320C435,320,420,320,405,320C390,320,375,320,360,320C345,320,330,320,315,320C300,320,285,320,270,320C255,320,240,320,225,320C210,320,195,320,180,320C165,320,150,320,135,320C120,320,105,320,90,320C75,320,60,320,45,320C30,320,15,320,8,320L0,320Z"></path></svg>