<?xml version="1.0" standalone="no"?><svg xmlns="http://www.w3.org/2000/svg" viewBox="0 0 1440 320"><path fill="#3939b0" fill-opacity="1" d="M0,192L7.5,213.3C15,235,30,277,45,282.7C60,288,75,256,90,224C105,192,120,160,135,133.3C150,107,165,85,180,112C195,139,210,213,225,213.3C240,213,255,139,270,133.3C285,128,300,192,315,202.7C330,213,345,171,360,176C375,181,390,235,405,245.3C420,256,435,224,450,186.7C465,149,480,107,495,122.7C510,139,525,213,540,240C555,267,570,245,585,218.7C600,192,615,160,630,138.7C645,117,660,107,675,96C690,85,705,75,720,90.7C735,107,750,149,765,181.3C780,213,795,235,810,245.3C825,256,840,256,855,234.7C870,213,885,171,900,170.7C915,171,930,213,945,208C960,203,975,149,990,133.3C1005,117,1020,139,1035,170.7C1050,203,1065,245,1080,261.3C1095,277,1110,267,1125,261.3C1140,256,1155,256,1170,234.7C1185,213,1200,171,1215,149.3C1230,128,1245,128,1260,122.7C1275,117,1290,107,1305,122.7C1320,139,1335,181,1350,186.7C1365,192,1380,160,1395,154.7C1410,149,1425,171,1433,181.3L1440,192L1440,320L1432.5,320C1425,320,1410,320,1395,320C1380,320,1365,320,1350,320C1335,320,1320,320,1305,320C1290,320,1275,320,1260,320C1245,320,1230,320,1215,320C1200,320,1185,320,1170,320C1155,320,1140,320,1125,320C1110,320,1095,320,1080,320C1065,320,1050,320,1035,320C1020,320,1005,320,990,320C975,320,960,320,945,320C930,320,915,320,900,320C885,320,870,320,855,320C840,320,825,320,810,320C795,320,780,320,765,320C750,320,735,320,720,320C705,320,690,320,675,320C660,320,645,320,630,320C615,320,600,320,585,320C570,320,555,320,540,320C525,320,510,320,495,320C480,320,465,320,450,320C435,320,420,320,405,320C390,320,375,320,360,320C345,320,330,320,315,320C300,320,285,320,270,320C255,320,240,320,225,320C210,320,195,320,180,320C165,320,150,320,135,320C120,320,105,320,90,320C75,320,60,320,45,320C30,320,15,320,8,320L0,320Z"></path></svg>