<?xml version="1.0" standalone="no"?><svg xmlns="http://www.w3.org/2000/svg" viewBox="0 0 1440 320"><path fill="#da4747" fill-opacity="1" d="M0,64L7.5,74.7C15,85,30,107,45,112C60,117,75,107,90,90.7C105,75,120,53,135,85.3C150,117,165,203,180,202.7C195,203,210,117,225,74.7C240,32,255,32,270,69.3C285,107,300,181,315,208C330,235,345,213,360,192C375,171,390,149,405,165.3C420,181,435,235,450,240C465,245,480,203,495,170.7C510,139,525,117,540,96C555,75,570,53,585,48C600,43,615,53,630,58.7C645,64,660,64,675,80C690,96,705,128,720,170.7C735,213,750,267,765,277.3C780,288,795,256,810,245.3C825,235,840,245,855,234.7C870,224,885,192,900,176C915,160,930,160,945,186.7C960,213,975,267,990,261.3C1005,256,1020,192,1035,154.7C1050,117,1065,107,1080,117.3C1095,128,1110,160,1125,144C1140,128,1155,64,1170,42.7C1185,21,1200,43,1215,69.3C1230,96,1245,128,1260,154.7C1275,181,1290,203,1305,192C1320,181,1335,139,1350,138.7C1365,139,1380,181,1395,165.3C1410,149,1425,75,1433,37.3L1440,0L1440,320L1432.5,320C1425,320,1410,320,1395,320C1380,320,1365,320,1350,320C1335,320,1320,320,1305,320C1290,320,1275,320,1260,320C1245,320,1230,320,1215,320C1200,320,1185,320,1170,320C1155,320,1140,320,1125,320C1110,320,1095,320,1080,320C1065,320,1050,320,1035,320C1020,320,1005,320,990,320C975,320,960,320,945,320C930,320,915,320,900,320C885,320,870,320,855,320C840,320,825,320,810,320C795,320,780,320,765,320C750,320,735,320,720,320C705,320,690,320,675,320C660,320,645,320,630,320C615,320,600,320,585,320C570,320,555,320,540,320C525,320,510,320,495,320C480,320,465,320,450,320C435,320,420,320,405,320C390,320,375,320,360,320C345,320,330,320,315,320C300,320,285,320,270,320C255,320,240,320,225,320C210,320,195,320,180,320C165,320,150,320,135,320C120,320,105,320,90,320C75,320,60,320,45,320C30,320,15,320,8,320L0,320Z"></path></svg>