<?xml version="1.0" standalone="no"?><svg xmlns="http://www.w3.org/2000/svg" viewBox="0 0 1440 320"><path fill="#da4747" fill-opacity="1" d="M0,160L7.5,176C15,192,30,224,45,197.3C60,171,75,85,90,69.3C105,53,120,107,135,133.3C150,160,165,160,180,144C195,128,210,96,225,85.3C240,75,255,85,270,128C285,171,300,245,315,256C330,267,345,213,360,176C375,139,390,117,405,144C420,171,435,245,450,256C465,267,480,213,495,176C510,139,525,117,540,90.7C555,64,570,32,585,69.3C600,107,615,213,630,261.3C645,309,660,299,675,266.7C690,235,705,181,720,165.3C735,149,750,171,765,202.7C780,235,795,277,810,277.3C825,277,840,235,855,186.7C870,139,885,85,900,101.3C915,117,930,203,945,197.3C960,192,975,96,990,90.7C1005,85,1020,171,1035,186.7C1050,203,1065,149,1080,154.7C1095,160,1110,224,1125,213.3C1140,203,1155,117,1170,96C1185,75,1200,117,1215,149.3C1230,181,1245,203,1260,186.7C1275,171,1290,117,1305,128C1320,139,1335,213,1350,245.3C1365,277,1380,267,1395,261.3C1410,256,1425,256,1433,256L1440,256L1440,320L1432.5,320C1425,320,1410,320,1395,320C1380,320,1365,320,1350,320C1335,320,1320,320,1305,320C1290,320,1275,320,1260,320C1245,320,1230,320,1215,320C1200,320,1185,320,1170,320C1155,320,1140,320,1125,320C1110,320,1095,320,1080,320C1065,320,1050,320,1035,320C1020,320,1005,320,990,320C975,320,960,320,945,320C930,320,915,320,900,320C885,320,870,320,855,320C840,320,825,320,810,320C795,320,780,320,765,320C750,320,735,320,720,320C705,320,690,320,675,320C660,320,645,320,630,320C615,320,600,320,585,320C570,320,555,320,540,320C525,320,510,320,495,320C480,320,465,320,450,320C435,320,420,320,405,320C390,320,375,320,360,320C345,320,330,320,315,320C300,320,285,320,270,320C255,320,240,320,225,320C210,320,195,320,180,320C165,320,150,320,135,320C120,320,105,320,90,320C75,320,60,320,45,320C30,320,15,320,8,320L0,320Z"></path></svg>